<svg fill="none" height="24" viewBox="0 0 24 24" width="24" xmlns="http://www.w3.org/2000/svg"><g stroke="#000" stroke-linecap="round" stroke-linejoin="round" stroke-width="2"><path d="m19.7341 16.0598c-.8533 1.7182-2.2254 3.1127-3.9149 3.9786s-3.6072 1.1575-5.4716.8321c-1.86435-.3255-3.57703-1.2509-4.88645-2.6403-1.30943-1.3895-2.14659-3.1696-2.38852-5.0791s.12413-3.84762 1.0444-5.5297c.92027-1.68207 2.34626-3.01945 4.06849-3.81567 1.72224-.79623 3.64998-1.00935 5.49998-.60804 1.85.4013 3.3662 1.31369 4.6198 2.75543.1518.16011.7354.80625 1.2205 1.78125"/><path d="m15.0687 7.81298 5.0403.90676.891-5.13022"/></g></svg>